<?xml version="1.0" encoding="UTF-8"?>
<svg id="Warstwa_2" data-name="Warstwa 2" xmlns="http://www.w3.org/2000/svg" viewBox="0 0 475.04 117.77">
  <defs>
    <style>
      .cls-1 {
        fill: #E80F38;
      }
    </style>
  </defs>
  <g id="Warstwa_1-2" data-name="Warstwa 1">
    <g>
      <rect class="cls-1" x="49.8" y="98.13" width="21.05" height="19.63"/>
      <path class="cls-1" d="M29.41,78.39c-4.17,0-8-2.59-9.26-6.56-2.1-6.61,2.57-12.71,8.85-12.97h20.81s0,0,0,0v-19.63s0,0,0,0h-20.64c-.52,0-1.07.02-1.72.06h0s-.87.06-.87.06h0C11.65,40.8,0,53.6,0,68.62c0,16.22,13.19,29.41,29.41,29.41l20.38.09s0,0,0,0v-19.63s0,0,0,0l-20.38-.09h0Z"/>
      <path class="cls-1" d="M70.22,19.72l-20.38-.09s0,0,0,0v19.63s0,0,0,0l20.38.09h0c4.16,0,8,2.58,9.26,6.55,2.1,6.61-2.57,12.71-8.85,12.97h-20.81s0,0,0,0v19.63s0,0,0,0h20.64c.52,0,1.07-.02,1.72-.06h0s.86-.06.86-.06h0c14.92-1.44,26.57-14.24,26.57-29.26,0-16.22-13.19-29.41-29.41-29.41Z"/>
      <rect class="cls-1" x="28.74" width="21.05" height="19.63"/>
    </g>
    <g>
      <polygon class="cls-1" points="146.52 26.12 146.52 19.76 121.53 19.76 121.53 26.12 137.76 26.12 121.11 45.67 121.11 52.04 146.8 52.04 146.8 45.67 129.92 45.67 146.52 26.12"/>
      <polygon class="cls-1" points="175.57 40.69 162.11 19.76 154.5 19.76 154.5 52.04 161.19 52.04 161.19 30.78 174.65 52.04 182.31 52.04 182.31 19.76 175.57 19.76 175.57 40.69"/>
      <path class="cls-1" d="M199.55,19.76l-10.47,32.28h7.15l2.21-6.96h11.71l2.21,6.96h7.24l-10.42-32.28h-9.64ZM200.47,38.62l3.83-12.08,3.83,12.08h-7.66Z"/>
      <path class="cls-1" d="M230.77,26.21h10.19v14.16c0,3.18-2.17,5.4-5.76,5.4-3.78,0-5.58-2.67-6.13-4.61l-5.67,3.14c1.48,4.61,5.63,8.16,11.81,8.16,8.58,0,12.68-5.81,12.68-12.08v-20.61h-17.11v6.46Z"/>
      <path class="cls-1" d="M268.82,19.76h-11.39v32.28h11.39c10.1,0,17.15-7.15,17.15-16.14,0-9.68-7.06-16.14-17.15-16.14ZM268.86,45.95h-4.61v-20.11h4.61c5.58,0,9.96,3.6,9.96,10.05s-4.38,10.05-9.96,10.05Z"/>
      <polygon class="cls-1" points="310.31 9.65 303.63 9.65 301.28 17.31 306.3 17.31 310.31 9.65"/>
      <polygon class="cls-1" points="316.82 45.67 299.94 45.67 316.55 26.12 316.55 19.76 291.55 19.76 291.55 26.12 307.78 26.12 291.14 45.67 291.14 52.04 316.82 52.04 316.82 45.67"/>
      <path class="cls-1" d="M134.25,65.87h-12.82v32.28h6.92v-10.79h5.9c7.1,0,11.57-4.29,11.57-11.3,0-5.53-4.47-10.19-11.57-10.19ZM134.25,81.14h-5.9v-9.04h5.9c2.72,0,4.66,1.89,4.66,4.52s-1.94,4.52-4.66,4.52Z"/>
      <path class="cls-1" d="M178.38,76.16c0-5.17-4.15-10.28-11.39-10.28h-13.47v32.28h6.78v-11.39h4.98l6.78,8.35v3.04h7.1v-4.29l-6.73-8.21c3.83-1.75,5.95-5.4,5.95-9.5ZM166.85,80.68h-6.55v-8.72h6.55c2.77,0,4.57,1.94,4.57,4.34s-1.8,4.38-4.57,4.38Z"/>
      <path class="cls-1" d="M202.09,65.46c-9.73,0-16.83,7.06-16.83,16.56s7.1,16.56,16.83,16.56,16.83-7.1,16.83-16.56-7.1-16.56-16.83-16.56ZM202.09,91.84c-5.26,0-9.68-3.87-9.68-9.82s4.43-9.82,9.68-9.82,9.68,3.87,9.68,9.82-4.43,9.82-9.68,9.82Z"/>
      <path class="cls-1" d="M230.77,72.33h10.19v14.16c0,3.18-2.17,5.4-5.76,5.4-3.78,0-5.58-2.67-6.13-4.61l-5.67,3.14c1.48,4.61,5.63,8.16,11.81,8.16,8.58,0,12.68-5.81,12.68-12.08v-20.61h-17.11v6.46Z"/>
      <polygon class="cls-1" points="257.43 98.15 280.02 98.15 280.02 91.84 264.25 91.84 264.25 84.64 278.59 84.64 278.59 78.42 264.25 78.42 264.25 72.19 280.02 72.19 280.02 65.87 257.43 65.87 257.43 98.15"/>
      <polygon class="cls-1" points="313.69 65.87 305.98 65.87 297.41 78.05 294.96 78.05 294.96 65.87 288.18 65.87 288.18 98.15 294.96 98.15 294.96 84.6 297.5 84.6 306.35 98.15 314.05 98.15 302.94 81.14 313.69 65.87"/>
      <polygon class="cls-1" points="318.07 72.42 327.98 72.42 327.98 98.15 334.99 98.15 334.99 72.42 344.9 72.42 344.9 65.87 318.07 65.87 318.07 72.42"/>
      <path class="cls-1" d="M355.46,65.87l-10.47,32.28h7.15l2.21-6.96h11.71l2.21,6.96h7.24l-10.42-32.28h-9.64ZM356.39,84.74l3.83-12.08,3.83,12.08h-7.66Z"/>
      <polygon class="cls-1" points="403.38 86.81 389.91 65.87 382.3 65.87 382.3 98.15 388.99 98.15 388.99 76.9 402.46 98.15 410.11 98.15 410.11 65.87 403.38 65.87 403.38 86.81"/>
      <polygon class="cls-1" points="417.58 72.42 427.49 72.42 427.49 98.15 434.5 98.15 434.5 72.42 444.42 72.42 444.42 65.87 417.58 65.87 417.58 72.42"/>
      <path class="cls-1" d="M464.62,65.87h-9.64l-10.47,32.28h7.15l2.21-6.96h11.71l2.21,6.96h7.24l-10.42-32.28ZM455.9,84.74l3.83-12.08,3.83,12.08h-7.66Z"/>
    </g>
  </g>
</svg>
