<?xml version="1.0" encoding="UTF-8"?>
<svg id="Warstwa_2" data-name="Warstwa 2" xmlns="http://www.w3.org/2000/svg" viewBox="0 0 99.63 117.77">
  <defs>
    <style>
      .cls-1 {
        fill: #1d1d1b;
      }
    </style>
  </defs>
  <g id="Warstwa_1-2" data-name="Warstwa 1">
    <g>
      <rect class="cls-1" x="49.8" y="98.13" width="21.05" height="19.63"/>
      <path class="cls-1" d="M29.41,78.39c-4.17,0-8-2.59-9.26-6.56-2.1-6.61,2.57-12.71,8.85-12.97h20.81s0,0,0,0v-19.63s0,0,0,0h-20.64c-.52,0-1.07.02-1.72.06h0s-.87.06-.87.06h0C11.65,40.8,0,53.6,0,68.62c0,16.22,13.19,29.41,29.41,29.41l20.38.09s0,0,0,0v-19.63s0,0,0,0l-20.38-.09h0Z"/>
      <path class="cls-1" d="M70.22,19.72l-20.38-.09s0,0,0,0v19.63s0,0,0,0l20.38.09h0c4.16,0,8,2.58,9.26,6.55,2.1,6.61-2.57,12.71-8.85,12.97h-20.81s0,0,0,0v19.63s0,0,0,0h20.64c.52,0,1.07-.02,1.72-.06h0s.86-.06.86-.06h0c14.92-1.44,26.57-14.24,26.57-29.26,0-16.22-13.19-29.41-29.41-29.41Z"/>
      <rect class="cls-1" x="28.74" width="21.05" height="19.63"/>
    </g>
  </g>
</svg>