<svg width="182" height="32" viewBox="0 0 182 32" fill="none" xmlns="http://www.w3.org/2000/svg">
<path d="M63.3761 0H59.2255V12.8H63.393C67.3308 12.8 69.8725 10.2878 69.8725 6.4C69.8725 2.51225 67.324 0 63.3761 0ZM63.3761 11.2998H60.7262V1.50022H63.3592C66.5331 1.50022 68.3549 3.28553 68.3549 6.4C68.3549 9.51448 66.5398 11.2998 63.3761 11.2998Z" fill="#C6EAFF"/>
<path d="M79.4549 12.8C83.0975 12.8 85.8432 10.0525 85.8432 6.40858C85.8432 2.76469 83.0975 0 79.4549 0C75.8124 0 73.0667 2.75439 73.0667 6.40858C73.0667 10.0628 75.8124 12.8 79.4549 12.8ZM79.4549 1.47679C82.2485 1.47679 84.2752 3.55117 84.2752 6.40858C84.2752 9.266 82.2485 11.3232 79.4549 11.3232C76.6614 11.3232 74.6347 9.2557 74.6347 6.40858C74.6347 3.56147 76.6614 1.47679 79.4549 1.47679Z" fill="#C6EAFF"/>
<path d="M90.6492 31.7092C94.2918 31.7092 97.0375 28.9617 97.0375 25.3178C97.0375 21.6739 94.2918 18.9092 90.6492 18.9092C87.0066 18.9092 84.261 21.6636 84.261 25.3178C84.261 28.972 87.0066 31.7092 90.6492 31.7092ZM90.6492 20.386C93.4428 20.386 95.4695 22.4603 95.4695 25.3178C95.4695 28.1752 93.4428 30.2324 90.6492 30.2324C87.8557 30.2324 85.829 28.1649 85.829 25.3178C85.829 22.4706 87.8557 20.386 90.6492 20.386Z" fill="#C6EAFF"/>
<path d="M97.3211 5.43786C98.1124 4.92116 98.5261 4.11225 98.5261 3.07528C98.5261 1.14744 97.0765 0 94.6485 0H90.1019V12.8H94.9363C98.4361 12.8 99.6843 10.7118 99.6843 8.75902C99.6843 7.13408 98.8498 5.96882 97.3211 5.43786ZM91.699 1.49666H94.6485C96.1485 1.49666 96.911 2.07038 96.911 3.20713C96.911 4.09087 96.3175 4.89978 94.6485 4.89978H91.699V1.50022V1.49666ZM95.019 11.2962H91.699V6.31091H95.019C97.0225 6.31091 98.0369 7.24098 98.0369 8.80534C98.0369 10.0098 97.2455 11.2962 95.019 11.2962Z" fill="#C6EAFF"/>
<path d="M112.461 12.8L110.258 7.44053C111.617 6.849 112.422 5.53408 112.422 3.89132C112.422 1.52873 110.815 0 108.332 0H103.943V12.8H105.39V7.8147H108.349C108.511 7.8147 108.665 7.80401 108.815 7.78976L110.877 12.8H112.461ZM108.349 6.31448H105.39V1.50022H108.407C109.984 1.50022 110.929 2.39466 110.929 3.89132C110.929 5.38797 109.988 6.31448 108.349 6.31448Z" fill="#C6EAFF"/>
<path d="M80.4804 22.7672C80.4804 20.6015 78.874 19.2002 76.3911 19.2002H72.0019V30.9335H73.4487V26.3637H76.4074C76.5703 26.3637 76.7234 26.3539 76.8733 26.3408L78.9359 30.9335H80.5195L78.3168 26.0207C79.6756 25.4784 80.4804 24.2731 80.4804 22.7672ZM76.4074 24.9885H73.4487V20.5754H76.466C78.0431 20.5754 78.9881 21.3953 78.9881 22.7672C78.9881 24.1392 78.0464 24.9885 76.4074 24.9885Z" fill="#C6EAFF"/>
<path d="M124.722 0L121.65 6.31448H121.402L118.317 0H116.72L120.762 8.27795L120.775 12.8H122.287L122.277 8.27795L126.302 0H124.722Z" fill="#C6EAFF"/>
<path d="M64.2961 19.2002H59.2255V30.9335H60.8165V26.3637H64.3105C67.0411 26.3637 68.8078 25.0146 68.8078 22.7836C68.8078 20.5525 67.0376 19.2035 64.2926 19.2035L64.2961 19.2002ZM64.3141 24.9819H60.8201V20.5721H64.3822C66.1273 20.5721 67.1701 21.3594 67.1701 22.7803C67.1701 24.2012 66.1309 24.9819 64.3141 24.9819Z" fill="#C6EAFF"/>
<path d="M103.565 27.3404C103.565 28.856 102.915 29.5616 101.521 29.5616H99.6843V30.9335H101.521C103.77 30.9335 105.008 29.6726 105.008 27.3828V19.2002H103.565V27.3371V27.3404Z" fill="#C6EAFF"/>
<path d="M110.331 30.9335H117.784V29.5612H111.763V24.9443H116.991V23.572H111.763V20.5725H117.784V19.2002H110.331V30.9335Z" fill="#C6EAFF"/>
<path d="M131.625 19.2002H129.292L123.722 23.5459V23.3858V19.2002H122.043V30.9335H123.722V25.1992H123.854L129.549 30.9335H131.625L125.318 24.4248V24.1046L131.625 19.2002Z" fill="#C6EAFF"/>
<path d="M133.755 20.5725H137.283V30.9335H138.725V20.5725H142.273V19.2002H133.755V20.5725Z" fill="#C6EAFF"/>
<path d="M148.025 19.2002L144.74 30.9335H146.44L147.415 27.3982L147.801 26.0259L149.3 20.5725H149.78L151.278 26.0259L151.65 27.3982L152.625 30.9335H154.322L151.055 19.2002H148.025Z" fill="#C6EAFF"/>
<path d="M166.644 29.5612H166.387L161.312 19.2002H158.581V30.9335H160.1V20.5725H160.556L165.432 30.9335H168.163V19.2002H166.644V29.5612Z" fill="#C6EAFF"/>
<path d="M171.357 19.2002V20.5725H175.331V30.9335H176.952V20.5725H180.94V19.2002H171.357Z" fill="#C6EAFF"/>
<path d="M49.6293 9.67725V0H0.666626V32H49.6293V10.7394C49.6397 10.5641 49.6431 10.3853 49.6431 10.2101C49.6431 10.0349 49.6397 9.85606 49.6293 9.68082V9.67725ZM31.4593 20.4131H48.1565V30.4658H31.4593V20.4131ZM29.9864 9.17657C28.4619 5.82923 25.85 3.11489 22.6289 1.53062H29.9864V9.17657ZM48.1565 4.81717C47.3546 3.48681 46.2706 2.36031 44.987 1.53062H48.1565V4.81717ZM48.1565 9.73447V10.6786C47.9259 15.1238 44.4605 18.6893 40.1692 18.8717H31.4593V1.52705H39.8216C44.2712 1.52705 47.919 5.16406 48.1565 9.73089V9.73447ZM29.9864 16C29.9864 23.9785 23.7405 30.4694 16.063 30.4694H2.1395V1.53062H16.063C23.7405 1.53062 29.9864 8.02146 29.9864 16ZM29.9864 22.8234V30.4694H22.6289C25.85 28.8851 28.4619 26.1708 29.9864 22.8234ZM45.0008 18.8753C46.2775 18.0492 47.3615 16.9227 48.1565 15.5959V18.8753H45.0008Z" fill="#C6EAFF"/>
</svg>
