<svg width="146" height="30" viewBox="0 0 146 30" fill="none" xmlns="http://www.w3.org/2000/svg">
<path d="M21.1621 1.9452V18.6933C21.1621 24.3178 16.4652 29 10.7256 29C4.98594 29 0.333374 24.3178 0.333374 18.6904C0.333374 13.0629 4.98594 8.47114 10.7256 8.47114C14.2468 8.47114 17.4223 10.1894 19.2922 12.85V1.9452C19.2922 1.42884 19.6408 1 20.205 1C20.7279 1 21.1621 1.42884 21.1621 1.9452ZM19.3808 18.6933C19.3808 18.4365 19.3808 18.1769 19.3365 17.9202C19.3365 17.7481 19.2922 17.6197 19.2922 17.4914C18.728 13.3692 15.1625 10.2332 10.8142 10.2332C5.94304 10.2332 2.20622 13.9702 2.20622 18.6933C2.20622 23.4163 5.94599 27.1942 10.8142 27.1942C15.6824 27.1942 19.3808 23.3288 19.3808 18.6933Z" fill="#C6EAFF" stroke="#C6EAFF" stroke-width="0.5" stroke-miterlimit="10"/>
<path d="M43.5931 18.0356C43.5931 18.6889 43.3342 19.1678 42.7694 19.1678H26.2286C26.5316 23.6938 29.9527 27.1732 34.4123 27.1732C37.098 27.1732 38.9159 26.2598 40.2132 24.8674C40.6044 24.4772 41.2104 24.3028 41.5987 24.7373C41.8575 25.0418 41.9017 25.6508 41.4692 26.0854C40.0837 27.7379 37.7893 29.0002 34.3681 29.0002C28.5672 29.0002 24.3666 24.3441 24.3666 18.5559C24.3666 12.7676 28.5672 8.2002 34.3681 8.2002C39.8249 8.2002 43.5902 12.8119 43.5902 18.0356H43.5931ZM41.9487 17.4709C41.8193 13.4682 38.6129 9.98575 34.4564 9.98575C30.0822 9.98575 26.7934 13.2051 26.3169 17.4709H41.9487Z" fill="#C6EAFF" stroke="#C6EAFF" stroke-width="0.5" stroke-miterlimit="10"/>
<path d="M63.2585 26.2598C61.5945 27.9123 58.9213 29.0002 56.2929 29.0002C50.6401 29.0002 45.9963 24.5629 45.9963 18.5559C45.9963 12.2473 51.0776 8.2002 56.2929 8.2002C58.966 8.2002 61.5945 9.15801 63.2585 10.8549C63.7407 11.2895 63.6544 11.8127 63.3448 12.1586C62.9489 12.6375 62.425 12.4187 61.9874 12.1142C60.499 10.7219 58.4838 9.9828 56.2929 9.9828C51.5599 9.9828 47.8806 13.7697 47.8806 18.5559C47.8806 23.342 51.4735 27.1703 56.2929 27.1703C58.3974 27.1703 60.4544 26.4312 61.9874 24.9502C62.425 24.6457 62.9518 24.4269 63.3894 24.9502C63.696 25.2547 63.7407 25.8193 63.2585 26.2568V26.2598Z" fill="#C6EAFF" stroke="#C6EAFF" stroke-width="0.5" stroke-miterlimit="10"/>
<path d="M83.286 26.2598C81.622 27.9123 78.9489 29.0002 76.3205 29.0002C70.6676 29.0002 66.0239 24.5629 66.0239 18.5559C66.0239 12.2473 71.1082 8.2002 76.3205 8.2002C78.9936 8.2002 81.622 9.15801 83.286 10.8549C83.7683 11.2895 83.682 11.8127 83.3724 12.1586C82.9765 12.6375 82.4526 12.4187 82.015 12.1142C80.5266 10.7219 78.5084 9.9828 76.3175 9.9828C71.5845 9.9828 67.9052 13.7697 67.9052 18.5559C67.9052 23.342 71.4982 27.1703 76.3175 27.1703C78.4221 27.1703 80.479 26.4312 82.015 24.9502C82.4526 24.6457 82.9794 24.4269 83.417 24.9502C83.7236 25.2547 83.7683 25.8193 83.286 26.2568V26.2598Z" fill="#C6EAFF" stroke="#C6EAFF" stroke-width="0.5" stroke-miterlimit="10"/>
<path d="M86.0516 18.6002C86.0516 12.8119 90.6851 8.2002 96.4866 8.2002C102.288 8.2002 106.88 12.8119 106.88 18.6002C106.88 24.3885 102.291 29.0002 96.4866 29.0002C90.6822 29.0002 86.0516 24.2998 86.0516 18.6002ZM105.018 18.6002C105.018 13.8141 101.338 9.9828 96.4866 9.9828C91.6354 9.9828 87.9139 13.8111 87.9139 18.6002C87.9139 23.3893 91.6383 27.1732 96.4866 27.1732C101.335 27.1732 105.018 23.3006 105.018 18.6002Z" fill="#C6EAFF" stroke="#C6EAFF" stroke-width="0.5" stroke-miterlimit="10"/>
<path d="M121.094 10.8428C115.788 10.8428 111.971 13.6333 111.971 19.7275V28.0553C111.971 28.5714 111.577 29 111.05 29C110.523 29 110.085 28.5714 110.085 28.0553V19.643C110.085 12.2162 114.691 9 121.005 9C121.794 9 122.101 9.47237 122.101 9.90101C122.101 10.4171 121.75 10.8457 121.091 10.8457L121.094 10.8428Z" fill="#C6EAFF" stroke="#C6EAFF" stroke-width="0.5" stroke-miterlimit="10"/>
<path d="M141.328 18.0356C141.328 18.6889 141.069 19.1678 140.504 19.1678H123.963C124.266 23.6938 127.687 27.1732 132.147 27.1732C134.833 27.1732 136.651 26.2598 137.948 24.8674C138.339 24.4772 138.945 24.3028 139.333 24.7373C139.592 25.0418 139.636 25.6508 139.204 26.0854C137.818 27.7379 135.524 29.0002 132.103 29.0002C126.302 29.0002 122.101 24.3441 122.101 18.5559C122.101 12.7676 126.302 8.2002 132.103 8.2002C137.56 8.2002 141.325 12.8119 141.325 18.0356H141.328ZM139.683 17.4709C139.554 13.4682 136.348 9.98575 132.191 9.98575C127.817 9.98575 124.528 13.2051 124.052 17.4709H139.683Z" fill="#C6EAFF" stroke="#C6EAFF" stroke-width="0.5" stroke-miterlimit="10"/>
<path d="M142.93 5C144.257 5 145.333 4.10457 145.333 3C145.333 1.89543 144.257 1 142.93 1C141.603 1 140.527 1.89543 140.527 3C140.527 4.10457 141.603 5 142.93 5Z" stroke="#C6EAFF" stroke-width="0.5" stroke-miterlimit="10"/>
<path d="M143.5 4.19386L143.042 3.42456C142.99 3.4305 142.937 3.43347 142.88 3.43347H142.34V4.19386H142.129V1.7998H142.88C143.137 1.7998 143.338 1.87406 143.482 2.01961C143.627 2.16515 143.701 2.36713 143.701 2.62258C143.701 2.80971 143.661 2.96713 143.582 3.09782C143.502 3.22852 143.39 3.3206 143.241 3.37703L143.731 4.1998H143.5V4.19386ZM143.331 3.06218C143.435 2.95822 143.487 2.80971 143.487 2.61961C143.487 2.42951 143.435 2.27802 143.331 2.17406C143.226 2.0701 143.074 2.01961 142.875 2.01961H142.343V3.21961H142.875C143.074 3.21961 143.226 3.16614 143.331 3.06218Z" fill="#C6EAFF"/>
</svg>
