<svg width="436" height="97" viewBox="0 0 436 97" fill="none" xmlns="http://www.w3.org/2000/svg">
<g clip-path="url(#clip0_1_386)">
<path d="M0 2.48828H5.30596L29.7735 37.0671V2.48828H35.1395V46.1774H29.7735L5.30596 11.7887V46.1774H0V2.48828Z" fill="#302929"/>
<path d="M42.8784 2.4884H70.97V7.48402H48.3145V21.1494H69.0378V26.145H48.3145V41.1919H70.97V46.1875H42.8784V2.4884Z" fill="#302929"/>
<path d="M89.5706 23.9025L74.9642 2.4884H81.3914L92.9344 19.7778L104.487 2.4884H110.915L96.3082 23.9025L111.355 46.1875H104.928L92.9444 28.3375L80.9609 46.1875H74.5337L89.5806 23.9025H89.5706Z" fill="#302929"/>
<path d="M127.523 7.48402H113.357V2.4884H147.185V7.48402H133.02V46.1875H127.523V7.48402Z" fill="#302929"/>
<path d="M189.573 21.1493L173.285 4.86096H180.212L199.004 23.6521L180.212 42.4432H173.285L189.573 26.1549H152.371V21.1593H189.573V21.1493Z" fill="#302929"/>
<path d="M205.992 2.4884H221.409C235.074 2.4884 244.625 11.2282 244.625 24.333C244.625 36.5066 235.074 46.1775 221.409 46.1775H205.992V2.4884ZM221.469 37.9382C229.018 37.9382 234.954 33.1328 234.954 24.333C234.954 15.5331 229.028 10.7277 221.469 10.7277H215.232V37.9382H221.469Z" fill="#302929"/>
<path d="M247.438 2.4884H278.022V11.038H256.678V19.4675H276.09V27.897H256.678V37.6379H278.022V46.1875H247.438V2.4884Z" fill="#302929"/>
<path d="M306.054 33.6334C306.054 31.9515 304.803 30.64 301.869 29.9492L294.381 28.1372C287.453 26.4553 282.147 22.7111 282.147 15.2127C282.147 6.97341 289.265 1.91772 298.435 1.91772C308.176 1.91772 313.292 7.09354 315.164 12.2794L306.675 16.394C305.984 13.711 303.551 10.5875 298.435 10.5875C293.82 10.5875 291.698 12.7099 291.698 14.9524C291.698 16.8845 293.26 18.0058 295.692 18.5764L304.682 20.7589C311.86 22.5109 315.735 26.9358 315.735 33.0527C315.735 39.9805 310.369 46.7181 297.574 46.7181C287.403 46.7181 281.847 40.9716 279.975 36.2363L287.964 31.6211C289.215 35.1751 293.39 37.6179 297.885 37.6179C304.312 37.6179 306.064 35.5555 306.064 33.6234L306.054 33.6334Z" fill="#302929"/>
<path d="M318.288 37.758H328.709V10.9179H318.288V2.4884H348.371V10.9179H337.95V37.758H348.371V46.1875H318.288V37.758Z" fill="#302929"/>
<path d="M349.303 24.3329C349.303 11.4785 359.044 1.92773 372.088 1.92773C380.888 1.92773 388.126 6.23257 391.69 12.85L383.261 17.1548C380.948 13.3506 376.774 11.1581 372.088 11.1581C365.1 11.1581 358.984 16.2138 358.984 24.3329C358.984 32.452 364.85 37.5077 372.088 37.5077C377.705 37.5077 382.14 35.075 384.262 29.769H372.469V21.3396H393.382V46.1775H384.332V41.9327C381.709 44.7459 377.154 46.7381 371.097 46.7381C359.054 46.7381 349.313 37.1273 349.313 24.3329H349.303Z" fill="#302929"/>
<path d="M398.368 2.4884H408.669L426.9 30.8303V2.4884H436.01V46.1775H425.648L407.418 17.4052V46.1775H398.368V2.4884Z" fill="#302929"/>
<path d="M116.992 83.4293C116.992 79.6851 114.299 77.5026 109.864 76.4515L103.186 74.8396C96.7588 73.2879 92.3739 69.804 92.3639 63.1265C92.3539 55.8283 98.5809 51.133 106.88 51.113C115.81 51.0929 120.746 56.3889 122.187 60.944L117.452 63.577C116.761 60.3333 113.317 56.0986 106.89 56.1086C101.584 56.1186 97.84 58.7516 97.85 63.1165C97.85 66.6705 100.543 68.7328 104.668 69.7239L111.225 71.2756C119.034 73.1377 122.598 77.5627 122.608 83.4293C122.618 90.3571 116.891 95.9233 106.78 95.9434C97.2293 95.9634 91.7232 90.4171 90.0312 85.6117L94.7666 82.9788C95.9579 87.3437 100.463 90.9577 106.77 90.9477C113.948 90.9377 117.002 87.3737 116.992 83.4393V83.4293Z" fill="#302929"/>
<path d="M127.904 78.7941L127.854 51.6436H133.28L133.33 78.7841C133.34 86.0823 138.155 90.8877 144.833 90.8676C151.76 90.8576 156.366 86.0422 156.356 78.734L156.305 51.5835H161.802L161.852 78.724C161.872 88.8354 155.084 95.8432 144.843 95.8633C134.791 95.8833 127.914 88.9054 127.894 78.7941H127.904Z" fill="#302929"/>
<path d="M168.92 51.5635H176.038L190.654 88.2247L205.131 51.4934H212.118L212.199 95.1725H206.953L206.883 60.4134L193.027 95.2025H188.101L174.176 60.4735L174.246 95.2426H169L168.92 51.5635Z" fill="#302929"/>
<path d="M220.017 51.5635H227.135L241.752 88.2247L256.228 51.4934H263.216L263.296 95.1725H258.05L257.98 60.4134L244.124 95.2025H239.199L225.273 60.4735L225.343 95.2426H220.097L220.017 51.5635Z" fill="#302929"/>
<path d="M269.693 90.0368L280.115 90.0167L280.055 56.3089L269.633 56.3289V51.3333L295.962 51.2832V56.2788L285.551 56.2988L285.611 90.0067L296.033 89.9867V94.9823L269.703 95.0324V90.0368H269.693Z" fill="#302929"/>
<path d="M313.953 56.2488L299.787 56.2788V51.2832L333.605 51.2131V56.2088L319.449 56.2388L319.519 94.9423H314.023L313.953 56.2588V56.2488Z" fill="#302929"/>
</g>
<defs>
<clipPath id="clip0_1_386">
<rect width="436" height="94.0057" fill="white" transform="translate(0 1.92773)"/>
</clipPath>
</defs>
</svg>
