<svg width="30" height="30" viewBox="0 0 30 30" fill="none" xmlns="http://www.w3.org/2000/svg">
<path d="M30 15C28.6343 13.6343 26.9888 12.7191 25.2481 12.254C26.523 10.9808 27.4905 9.36559 27.9904 7.50002C26.1248 7.00015 24.2422 7.03038 22.5021 7.49788C22.9696 5.75778 22.9999 3.87517 22.5 2.00961C20.6344 2.50948 19.0191 3.47695 17.746 4.75195C17.2808 3.01124 16.3657 1.36569 15 0C13.6343 1.36569 12.7191 3.01116 12.254 4.75195C10.9808 3.47695 9.36559 2.50948 7.50002 2.00961C7.00015 3.87517 7.03038 5.75778 7.49788 7.49788C5.75778 7.03038 3.87517 7.00015 2.00961 7.50002C2.50948 9.36559 3.47695 10.9809 4.75195 12.254C3.01124 12.7191 1.36569 13.6343 0 15C1.36569 16.3656 3.01116 17.2808 4.75195 17.746C3.47695 19.0192 2.50948 20.6344 2.00961 22.5C3.87517 22.9999 5.75778 22.9696 7.49788 22.5021C7.03038 24.2422 7.00015 26.1248 7.50002 27.9904C9.36559 27.4905 10.9809 26.523 12.254 25.2481C12.7191 26.9888 13.6343 28.6343 15 30C16.3656 28.6343 17.2808 26.9888 17.7459 25.2481C19.0191 26.523 20.6343 27.4905 22.4999 27.9904C22.9998 26.1248 22.9695 24.2422 22.5019 22.5021C24.2421 22.9697 26.1247 22.9999 27.9902 22.5C27.4903 20.6344 26.5229 19.0191 25.2479 17.746C26.9886 17.2809 28.6343 16.3656 30 15Z" fill="#302929"/>
</svg>
