<svg width="30" height="30" viewBox="0 0 30 30" fill="none" xmlns="http://www.w3.org/2000/svg">
<path d="M23.9999 8.87719e-05V23C23.9999 23.5514 23.5514 24 22.9999 24C22.4485 24 22 23.5514 22 23V7.00001C22 3.14023 18.8598 0 15 0C11.1401 0 7.99995 3.14023 7.99995 7.00001V23C7.99995 23.5514 7.55137 24 6.99992 24C6.44847 24 5.99998 23.5514 5.99998 23V8.87719e-05H0V23C0 26.8599 3.14023 30 7.00001 30C10.8598 30 14 26.8599 14 23V7.00001C14 6.44865 14.4486 6.00007 15 6.00007C15.5513 6.00007 16 6.44865 16 7.00001V23C16 26.8599 19.1401 30 23 30C26.8599 30 30 26.8599 30 23V8.87719e-05H23.9999Z" fill="#302929"/>
</svg>
