<svg width="30" height="30" viewBox="0 0 30 30" fill="none" xmlns="http://www.w3.org/2000/svg">
<path d="M29.5756 14.846C29.5658 14.7452 29.5459 14.6474 29.5179 14.5532C29.5039 14.5064 29.4875 14.4602 29.4689 14.4152C29.4134 14.2807 29.3394 14.156 29.2507 14.045C28.983 13.7114 28.5788 13.499 28.1255 13.499H20.4431L27.0965 9.54815C27.7941 9.13415 28.0327 8.21679 27.6303 7.49921C27.2278 6.78162 26.3359 6.53618 25.6382 6.95018L18.9849 10.9011L22.826 4.0576C23.2285 3.34001 22.9899 2.42266 22.2922 2.00866C21.5946 1.59466 20.7027 1.8401 20.3002 2.55769L16.4591 9.40114V1.5C16.4591 0.671406 15.8063 0 15.0008 0C14.1952 0 13.5424 0.671406 13.5424 1.5V9.40182L9.70138 2.55837C9.29889 1.84079 8.40701 1.59543 7.70936 2.00934C7.0117 2.42334 6.77317 3.3407 7.17558 4.05828L11.0167 10.9017L4.36335 6.95086C3.6657 6.53687 2.77382 6.78231 2.37133 7.49989C1.96883 8.21748 2.20745 9.13484 2.9051 9.54883L9.55846 13.4997H1.87554C1.67434 13.4997 1.48236 13.5417 1.30801 13.6173C0.78479 13.8453 0.417297 14.3781 0.417297 14.9997C0.417297 15.0513 0.419625 15.1029 0.424863 15.1533C0.434757 15.2541 0.454629 15.3519 0.482648 15.4461C0.496616 15.4929 0.512995 15.5391 0.531619 15.5841C0.587075 15.7185 0.661156 15.8433 0.749786 15.9543C1.01751 16.288 1.42175 16.5003 1.87504 16.5003H9.55738L2.90402 20.4512C2.20637 20.8652 1.96783 21.7825 2.37024 22.5001C2.77274 23.2177 3.66462 23.463 4.36227 23.0491L11.0156 19.0983L7.1745 25.9417C6.772 26.6593 7.01062 27.5767 7.70828 27.9907C8.40593 28.4047 9.29781 28.1592 9.7003 27.4416L13.5414 20.5982V28.5C13.5414 29.3286 14.1942 30 14.9998 30C15.8053 30 16.4581 29.3286 16.4581 28.5V20.5982L20.2992 27.4416C20.7017 28.1592 21.5936 28.4046 22.2912 27.9907C22.9889 27.5767 23.2274 26.6593 22.825 25.9417L18.9839 19.0983L25.6372 23.0491C26.3349 23.4631 27.2268 23.2177 27.6293 22.5001C28.0318 21.7825 27.7931 20.8652 27.0955 20.4512L20.4421 16.5003H28.1245C28.3257 16.5003 28.5177 16.4583 28.692 16.3827C29.2152 16.1547 29.5827 15.6219 29.5827 15.0003C29.5827 14.9487 29.5809 14.8964 29.5756 14.846Z" fill="#302929"/>
</svg>
