<svg width="88" height="20" viewBox="0 0 88 20" fill="none" xmlns="http://www.w3.org/2000/svg">
<path d="M0.504883 0.232788H5.22951L13.5934 12.8783V0.232788H17.7753V19.7208H13.0188L4.67085 6.88911V19.7208H0.504883V0.232788Z" fill="#140103"/>
<path d="M37.0088 8.00624L30.3848 1.56714H35.8596L44.4788 9.94573L35.8596 18.3243H30.3848L36.9769 11.9162H23.0903V7.99072H37.0088V8.00624Z" fill="#140103"/>
<path d="M49.7783 0.232788H56.8493C63.1222 0.232788 67.5116 4.12728 67.5116 9.97678C67.5116 15.4073 63.1222 19.7208 56.8493 19.7208H49.7783V0.232788ZM56.8812 16.059C60.3449 16.059 63.0743 13.9178 63.0743 9.99229C63.0743 6.06677 60.3608 3.92557 56.8812 3.92557H54.0241V16.059H56.8812Z" fill="#140103"/>
<path d="M83.0581 14.135C83.0581 13.3747 82.4835 12.8006 81.1427 12.4903L77.711 11.6835C74.5346 10.9387 72.0925 9.26299 72.0925 5.92708C72.0925 2.24981 75.3646 0 79.5625 0C84.0318 0 86.3781 2.31187 87.24 4.62374L83.3454 6.45462C83.0262 5.25989 81.9089 3.86346 79.5625 3.86346C77.4396 3.86346 76.466 4.80993 76.466 5.81846C76.466 6.68736 77.1842 7.18386 78.3015 7.43212L82.4196 8.40962C85.7077 9.18542 87.4954 11.1715 87.4954 13.9023C87.4954 16.9899 85.0373 20 79.1635 20C74.4867 20 71.9488 17.4399 71.0869 15.3297L74.7581 13.2661C75.3327 14.8487 77.2481 15.9348 79.3071 15.9348C82.26 15.9348 83.0581 15.0194 83.0581 14.1505V14.135Z" fill="#140103"/>
</svg>
