<svg width="31" height="30" viewBox="0 0 31 30" fill="none" xmlns="http://www.w3.org/2000/svg">
<g filter="url(#filter0_n_195_2219)">
<path d="M29.44 14.5647C29.7442 14.7125 30.0454 14.8717 30.3333 15.0576C30.1173 14.7904 29.8767 14.5403 29.6269 14.2982C27.2428 11.9841 23.8717 10.6988 20.5358 10.9034C20.4396 10.908 20.3435 10.9141 20.2474 10.921C22.0216 8.90137 24.6596 7.76508 27.3325 7.56976C27.6698 7.54569 28.0102 7.53298 28.3526 7.54999C28.0319 7.42659 27.6984 7.33026 27.3611 7.24553C24.1393 6.43355 20.5772 7.00586 17.7905 8.85102C17.7091 8.90335 17.6293 8.95809 17.5491 9.01231C18.0753 6.37537 19.7921 4.07159 22.0098 2.56562C22.2898 2.37613 22.5783 2.1949 22.8833 2.03842C22.5438 2.09187 22.2069 2.17522 21.8724 2.27052C18.6763 3.17823 15.8776 5.45494 14.3868 8.44619C14.3425 8.53221 14.3008 8.61951 14.2584 8.70656C13.3957 6.15985 13.7305 3.30636 14.8981 0.893274C15.0459 0.589157 15.2051 0.287962 15.391 0C15.1238 0.216036 14.8737 0.456648 14.6316 0.70637C12.3175 3.0905 11.0321 6.46156 11.2368 9.79749C11.2414 9.89373 11.2475 9.9898 11.2544 10.0859C9.23477 8.3117 8.09848 5.67373 7.90316 3.00078C7.87909 2.66349 7.86638 2.32311 7.88339 1.98076C7.75999 2.30146 7.66366 2.63488 7.57893 2.97225C6.76695 6.19397 7.33926 9.75615 9.18442 12.5428C9.23675 12.6242 9.29149 12.704 9.34571 12.7842C6.70877 12.258 4.40508 10.5412 2.89902 8.32356C2.70953 8.0435 2.5283 7.75503 2.37182 7.45005C2.42527 7.78949 2.50862 8.12643 2.60384 8.46088C3.51155 11.657 5.78826 14.4557 8.7795 15.9465C8.86552 15.9909 8.95283 16.0325 9.03988 16.0749C6.49317 16.9377 3.63967 16.6028 1.22659 15.4352C0.92247 15.2874 0.621275 15.1283 0.333313 14.9423C0.549349 15.2095 0.789961 15.4596 1.03968 15.7017C3.42381 18.0158 6.79488 19.3012 10.1308 19.0966C10.227 19.0919 10.3231 19.0858 10.4192 19.0789C8.64502 21.0985 6.00704 22.2348 3.3341 22.4302C2.99681 22.4542 2.65643 22.4669 2.31407 22.4499C2.63477 22.5733 2.96819 22.6697 3.30557 22.7544C6.52737 23.5664 10.0895 22.9941 12.8761 21.1489C12.9575 21.0966 13.0373 21.0418 13.1175 20.9876C12.5913 23.6245 10.8745 25.9283 8.65687 27.4343C8.37682 27.6238 8.08834 27.805 7.78336 27.9615C8.1228 27.908 8.45974 27.8247 8.7942 27.7295C11.9903 26.8218 14.7891 24.5451 16.2798 21.5538C16.3242 21.4678 16.3658 21.3805 16.4082 21.2934C17.271 23.8401 16.9361 26.6936 15.7685 29.1067C15.6207 29.4108 15.4616 29.712 15.2756 30C15.5429 29.784 15.7929 29.5434 16.035 29.2936C18.3491 26.9095 19.6345 23.5384 19.4299 20.2025C19.4252 20.1063 19.4191 20.0102 19.4123 19.9141C21.4319 21.6883 22.5681 24.3263 22.7635 26.9992C22.7875 27.3365 22.8002 27.6769 22.7832 28.0192C22.9066 27.6985 23.003 27.3651 23.0877 27.0277C23.8997 23.806 23.3274 20.2438 21.4822 17.4572C21.4299 17.3758 21.3751 17.296 21.3209 17.2158C23.9578 17.7421 26.2616 19.4588 27.7676 21.6764C27.9571 21.9565 28.1383 22.245 28.2948 22.5499C28.2414 22.2105 28.158 21.8736 28.0627 21.5391C27.155 18.343 24.8783 15.5443 21.887 14.0535C21.801 14.0091 21.7137 13.9675 21.6267 13.9251C24.1734 13.0623 27.027 13.3971 29.44 14.5647Z" fill="#C6EAFF"/>
</g>
<defs>
<filter id="filter0_n_195_2219" x="0.333313" y="0" width="30" height="30" filterUnits="userSpaceOnUse" color-interpolation-filters="sRGB">
<feFlood flood-opacity="0" result="BackgroundImageFix"/>
<feBlend mode="normal" in="SourceGraphic" in2="BackgroundImageFix" result="shape"/>
<feTurbulence type="fractalNoise" baseFrequency="1 1" stitchTiles="stitch" numOctaves="3" result="noise" seed="4939" />
<feColorMatrix in="noise" type="luminanceToAlpha" result="alphaNoise" />
<feComponentTransfer in="alphaNoise" result="coloredNoise1">
<feFuncA type="discrete" tableValues="1 1 1 1 1 1 1 1 1 1 1 1 1 1 1 1 1 1 1 1 1 1 1 1 1 1 1 1 1 1 1 1 1 1 1 1 1 1 1 1 1 1 1 1 1 1 1 1 1 1 1 0 0 0 0 0 0 0 0 0 0 0 0 0 0 0 0 0 0 0 0 0 0 0 0 0 0 0 0 0 0 0 0 0 0 0 0 0 0 0 0 0 0 0 0 0 0 0 0 0 "/>
</feComponentTransfer>
<feComposite operator="in" in2="shape" in="coloredNoise1" result="noise1Clipped" />
<feFlood flood-color="rgba(0, 0, 0, 0.25)" result="color1Flood" />
<feComposite operator="in" in2="noise1Clipped" in="color1Flood" result="color1" />
<feMerge result="effect1_noise_195_2219">
<feMergeNode in="shape" />
<feMergeNode in="color1" />
</feMerge>
</filter>
</defs>
</svg>
