<svg width="34" height="34" viewBox="0 0 34 34" fill="none" xmlns="http://www.w3.org/2000/svg">
<path d="M8.37653 0C3.75028 0 0 3.75028 0 8.37653H16.753C16.753 3.75028 13.0027 0 8.37653 0Z" fill="#C6EAFF"/>
<path d="M8.37643 8.37646C3.75028 8.37646 0 12.1266 0 16.7529H16.753C16.753 12.1266 13.0026 8.37646 8.37643 8.37646Z" fill="#C6EAFF"/>
<path d="M25.1295 33.5059C29.7557 33.5059 33.5059 29.7557 33.5059 25.1295H16.7529C16.7529 29.7557 20.5033 33.5059 25.1295 33.5059Z" fill="#C6EAFF"/>
<path d="M33.5059 16.7529H16.7529C16.7529 21.3791 20.5032 25.1294 25.1294 25.1294C29.7555 25.1294 33.5059 21.3791 33.5059 16.7529Z" fill="#C6EAFF"/>
<path d="M0 25.1295C0 29.7556 3.75028 33.5059 8.37643 33.5059V16.7529C3.75028 16.7529 0 20.5033 0 25.1295Z" fill="#C6EAFF"/>
<path d="M8.37646 25.1295C8.37646 29.7556 12.1267 33.5059 16.7529 33.5059V16.7529C12.1267 16.7529 8.37646 20.5033 8.37646 25.1295Z" fill="#C6EAFF"/>
<path d="M33.5058 8.37653C33.5058 3.75028 29.7556 0 25.1294 0V16.7531C29.7556 16.7531 33.5058 13.0027 33.5058 8.37653Z" fill="#C6EAFF"/>
<path d="M25.1294 8.37653C25.1294 3.75028 21.3791 0 16.7529 0V16.7531C21.3792 16.7531 25.1294 13.0027 25.1294 8.37653Z" fill="#C6EAFF"/>
</svg>
