<svg width="35" height="34" viewBox="0 0 35 34" fill="none" xmlns="http://www.w3.org/2000/svg">
<path d="M34.5402 16.1551H22.1385L34.1302 13.0637L33.8227 11.867L21.831 14.9585L32.5928 8.97507L31.8753 7.87812L21.2161 13.8615L29.928 5.38504L29.0055 4.48753L20.2936 12.964L26.4432 2.5928L25.3158 1.89474L19.1662 12.3657L22.3435 0.698061L21.1136 0.398892L17.9363 12.0665V0H16.6039V12.0665L13.4266 0.398892L12.1967 0.698061L15.374 12.3657L9.22438 1.89474L8.09695 2.5928L14.2465 12.964L5.53463 4.48753L4.61219 5.38504L13.3241 13.8615L2.66482 7.87812L1.94737 8.97507L12.7091 14.9585L0.717452 11.867L0.409972 13.0637L12.4017 16.1551H0V17.4515H12.4017L0.409972 20.5429L0.717452 21.7396L12.7091 18.6482L1.94737 24.6316L2.66482 25.7285L13.3241 19.7452L4.61219 28.2216L5.53463 29.1191L14.2465 20.6427L8.09695 31.0139L9.22438 31.7119L15.374 21.241L12.1967 32.9086L13.4266 33.2078L16.6039 21.5402V33.6067H17.9363V21.5402L21.1136 33.2078L22.3435 32.9086L19.1662 21.241L25.3158 31.7119L26.4432 31.0139L20.2936 20.6427L29.0055 29.1191L29.928 28.2216L21.2161 19.7452L31.8753 25.7285L32.5928 24.6316L21.831 18.6482L33.8227 21.7396L34.1302 20.5429L22.1385 17.4515H34.5402V16.1551Z" fill="#C6EAFF"/>
</svg>
