<svg width="30" height="30" viewBox="0 0 30 30" fill="none" xmlns="http://www.w3.org/2000/svg">
<path d="M15 0C6.71562 0 0 6.5342 0 14.5946C0 22.6549 6.71562 29.1891 15 29.1891C23.2843 29.1891 30 22.655 30 14.5946C30 6.53411 23.2842 0 15 0ZM15 18.8659C10.8087 18.8659 7.27352 16.9784 6.17173 14.3987C7.2736 11.8191 10.8088 9.9315 15 9.9315C19.1911 9.9315 22.7265 11.819 23.8282 14.3987C22.7264 16.9783 19.1911 18.8659 15 18.8659Z" fill="#C6EAFF"/>
<path d="M14.9999 17.3616C16.5706 17.3616 17.8439 16.1228 17.8439 14.5946C17.8439 13.0664 16.5706 11.8275 14.9999 11.8275C13.4293 11.8275 12.156 13.0664 12.156 14.5946C12.156 16.1228 13.4293 17.3616 14.9999 17.3616Z" fill="#C6EAFF"/>
</svg>
