<svg width="29" height="34" viewBox="0 0 29 34" fill="none" xmlns="http://www.w3.org/2000/svg">
<path d="M14.1607 2.16588e-05C6.38227 2.09788e-05 2.36259e-06 6.38229 1.68259e-06 14.1607C7.84626e-07 24.4322 11.9668 32.0111 12.4654 32.41L14.0609 33.4072L15.6565 32.41C16.1551 32.1108 28.2216 24.4322 28.2216 14.1607C28.3213 6.38229 22.0388 2.23476e-05 14.1607 2.16588e-05ZM14.1607 25.928C10.9695 23.5346 6.18283 18.8477 6.18283 14.1607C6.18283 9.77287 9.77286 6.18285 14.1607 6.18285C18.5485 6.18285 22.1385 9.77288 22.1385 14.1607C22.1385 18.8477 17.3518 23.5346 14.1607 25.928Z" fill="#C6EAFF"/>
</svg>
